<svg id="Layer_1" data-name="Layer 1" xmlns="http://www.w3.org/2000/svg" viewBox="0 0 134 92"><title>card</title><path d="M89.54,61.09H66a1.69,1.69,0,0,0-1.7,1.7v14.5A1.69,1.69,0,0,0,66,79h23.5a1.69,1.69,0,0,0,1.7-1.7V62.69A1.6,1.6,0,0,0,89.54,61.09Zm-21.8,3.4h20v11h-20Z"/><path d="M89.54,13.09H76a1.69,1.69,0,0,0-1.7,1.7v14.5A1.69,1.69,0,0,0,76,31h13.5a1.69,1.69,0,0,0,1.7-1.7V14.69A1.6,1.6,0,0,0,89.54,13.09Zm-11.8,3.4h10v11h-10Z"/><path d="M89.54,37.29H53a1.69,1.69,0,0,0-1.7,1.7v14.5a1.69,1.69,0,0,0,1.7,1.7h36.5a1.69,1.69,0,0,0,1.7-1.7V38.89A1.6,1.6,0,0,0,89.54,37.29Zm-34.8,3.4h33v11h-33Z"/><path d="M98.27,79h0a1.79,1.79,0,0,1-1.8-1.8V14.88a1.79,1.79,0,0,1,1.8-1.8h0a1.79,1.79,0,0,1,1.8,1.8v62.3A1.79,1.79,0,0,1,98.27,79Z"/></svg>