<svg id="Layer_1" data-name="Layer 1" xmlns="http://www.w3.org/2000/svg" viewBox="0 0 134 92"><title>card</title><path d="M43.42,62.69v14.6a1.69,1.69,0,0,0,1.7,1.7h23.5a1.69,1.69,0,0,0,1.7-1.7V62.79a1.69,1.69,0,0,0-1.7-1.7H45.12A1.6,1.6,0,0,0,43.42,62.69Zm23.5,12.8h-20v-11h20Z"/><path d="M43.42,14.69v14.6a1.69,1.69,0,0,0,1.7,1.7h13.5a1.69,1.69,0,0,0,1.7-1.7V14.79a1.69,1.69,0,0,0-1.7-1.7H45.12A1.6,1.6,0,0,0,43.42,14.69Zm13.5,12.8h-10v-11h10Z"/><path d="M43.42,38.89v14.6a1.69,1.69,0,0,0,1.7,1.7h36.5a1.69,1.69,0,0,0,1.7-1.7V39a1.69,1.69,0,0,0-1.7-1.7H45.12A1.6,1.6,0,0,0,43.42,38.89Zm36.5,12.8h-33v-11h33Z"/><path d="M34.59,77.18V14.88a1.79,1.79,0,0,1,1.8-1.8h0a1.79,1.79,0,0,1,1.8,1.8v62.3a1.79,1.79,0,0,1-1.8,1.8h0A1.79,1.79,0,0,1,34.59,77.18Z"/></svg>