<svg id="Layer_1" data-name="Layer 1" xmlns="http://www.w3.org/2000/svg" viewBox="0 0 134 92"><title>card</title><path d="M79.24,60.57H55.74a1.69,1.69,0,0,0-1.7,1.7v14.5a1.69,1.69,0,0,0,1.7,1.7h23.5a1.69,1.69,0,0,0,1.7-1.7V62.17A1.6,1.6,0,0,0,79.24,60.57ZM57.44,64h20V75h-20Z"/><path d="M74.24,12.77H60.74a1.69,1.69,0,0,0-1.7,1.7V29a1.69,1.69,0,0,0,1.7,1.7h13.5a1.69,1.69,0,0,0,1.7-1.7V14.37A1.6,1.6,0,0,0,74.24,12.77Zm-11.8,3.4h10v11h-10Z"/><path d="M85.6,37.27H49.1A1.69,1.69,0,0,0,47.4,39v14.5a1.69,1.69,0,0,0,1.7,1.7H85.6a1.69,1.69,0,0,0,1.7-1.7V38.87A1.6,1.6,0,0,0,85.6,37.27Zm-34.8,3.4h33v11h-33Z"/><path d="M67.34,63h0c-1,0-1.8-.26-1.8-.57V52.24c0-.31.8-.57,1.8-.57h0c1,0,1.8.26,1.8.57V62.4C69.14,62.71,68.34,63,67.34,63Z"/><path d="M67.34,39.84h0c-1,0-1.8-.25-1.8-.56V29.12c0-.32.8-.57,1.8-.57h0c1,0,1.8.25,1.8.57V39.28C69.14,39.59,68.34,39.84,67.34,39.84Z"/></svg>