<svg id="Layer_1" data-name="Layer 1" xmlns="http://www.w3.org/2000/svg" viewBox="0 0 134 92"><title>card</title><path d="M85.6,47.73H49.1a1.69,1.69,0,0,0-1.7,1.7v14.5a1.69,1.69,0,0,0,1.7,1.7H85.6a1.69,1.69,0,0,0,1.7-1.7V49.33A1.6,1.6,0,0,0,85.6,47.73Zm-34.8,3.4h33v11h-33Z"/><path d="M85.6,68.91H49.1a1.69,1.69,0,0,0-1.7,1.7v14.5a1.69,1.69,0,0,0,1.7,1.7H85.6a1.69,1.69,0,0,0,1.7-1.7V70.51A1.6,1.6,0,0,0,85.6,68.91Zm-34.8,3.4h33v11h-33Z"/><path d="M67.34,70.42h0c-1,0-1.8-.15-1.8-.35V63.81c0-.2.8-.35,1.8-.35h0c1,0,1.8.15,1.8.35v6.26C69.14,70.27,68.34,70.42,67.34,70.42Z"/><path d="M85.6,26.46H49.1a1.69,1.69,0,0,0-1.7,1.7v14.5a1.69,1.69,0,0,0,1.7,1.7H85.6a1.69,1.69,0,0,0,1.7-1.7V28.06A1.6,1.6,0,0,0,85.6,26.46Zm-34.8,3.4h33v11h-33Z"/><path d="M67.34,49.16h0c-1,0-1.8-.16-1.8-.35V42.54c0-.2.8-.35,1.8-.35h0c1,0,1.8.15,1.8.35v6.27C69.14,49,68.34,49.16,67.34,49.16Z"/><path d="M85.6,5.2H49.1a1.69,1.69,0,0,0-1.7,1.7V21.4a1.69,1.69,0,0,0,1.7,1.7H85.6a1.69,1.69,0,0,0,1.7-1.7V6.8A1.6,1.6,0,0,0,85.6,5.2ZM50.8,8.6h33v11h-33Z"/><path d="M67.34,27.89h0c-1,0-1.8-.16-1.8-.35V21.27c0-.19.8-.35,1.8-.35h0c1,0,1.8.16,1.8.35v6.27C69.14,27.73,68.34,27.89,67.34,27.89Z"/></svg>